<svg xmlns="http://www.w3.org/2000/svg" width="1400" height="2000" viewBox="0 0 1400 2000">
<rect x="0" y="0" width="1400" height="2000" fill="#eee5cc"/>
<text x="90" y="70" dominant-baseline="text-before-edge" text-anchor="start" font-family="Arial" font-weight="700" font-size="30" fill="#254a5b">MALDEK  /  VISITOR SERIES</text>
<text x="90" y="140" dominant-baseline="text-before-edge" text-anchor="start" font-family="Georgia" font-weight="400" font-size="81" fill="#254d43">ABOVE THE PINES</text>
<rect x="90" y="264" width="1220" height="1435" fill="#c99542"/>
<circle cx="1070" cy="480" r="125" fill="#eee5cc"/>
<polygon points="90,1020 405,580 652,942 855,660 1310,1110 1310,1699 90,1699" fill="#cbd1be"/>
<polygon points="90,1260 405,580 492,995 652,942 855,660 940,1040 1310,1200 1310,1699 90,1699" fill="#8baba1"/>
<polygon points="90,1330 560,1040 830,1190 1310,975 1310,1699 90,1699" fill="#447368"/>
<polygon points="170,910 94.39999999999999,1190 245.60000000000002,1190" fill="#254d43"/>
<rect x="165" y="1190" width="10" height="35" fill="#254d43"/>
<polygon points="1120,905 1034.95,1220 1205.05,1220" fill="#254d43"/>
<rect x="1115" y="1220" width="10" height="35" fill="#254d43"/>
<polygon points="1230,1080 1162.5,1330 1297.5,1330" fill="#254d43"/>
<rect x="1225" y="1330" width="10" height="35" fill="#254d43"/>
<polygon points="235,1255 185.05,1440 284.95,1440" fill="#254d43"/>
<rect x="230" y="1440" width="10" height="35" fill="#254d43"/>
<polyline points="90,650 1310,915" fill="none" stroke="#283833" stroke-width="9" stroke-linejoin="round"/>
<polyline points="740,790 740,900" fill="none" stroke="#283833" stroke-width="15" stroke-linejoin="round"/>
<rect x="575" y="915" width="340" height="280" fill="#254a5b"/>
<polygon points="575,915 600,875 890,875 915,915" fill="#283833"/>
<rect x="605" y="935" width="123" height="130" fill="#eee5cc"/>
<rect x="753" y="935" width="132" height="130" fill="#eee5cc"/>
<polyline points="745,931 745,1185" fill="none" stroke="#c99542" stroke-width="5" stroke-linejoin="round"/>
<rect x="605" y="1100" width="280" height="10" fill="#c99542"/>
<text x="90" y="1760" dominant-baseline="text-before-edge" text-anchor="start" font-family="Arial" font-weight="700" font-size="46" fill="#254d43">TRAVEL BY GONDOLA</text>
<text x="90" y="1850" dominant-baseline="text-before-edge" text-anchor="start" font-family="Georgia" font-weight="400" font-size="37" fill="#254a5b">A little further from the everyday.</text>
<text x="90" y="1940" dominant-baseline="text-before-edge" text-anchor="start" font-family="Arial" font-weight="400" font-size="23" fill="#254a5b">REGIONAL TRAVEL  /  ILLUSTRATED EDITION</text>
<circle cx="15.215719546296194" cy="1247.9997182991312" r="0.5676745646035257" fill="#c9b995"/>
<circle cx="1381.0659482630392" cy="174.47484864852612" r="0.6562144317439694" fill="#c9b995"/>
<circle cx="1390.5904264567675" cy="1734.3343333793362" r="0.9355367700806669" fill="#c9b995"/>
<circle cx="1393.8614085723661" cy="781.9780530854737" r="0.8562569258907349" fill="#c9b995"/>
<circle cx="1392.4467353048751" cy="420.7299983599559" r="0.48722733259293766" fill="#c9b995"/>
<circle cx="12.15524113738201" cy="1180.1076374932934" r="1.0129238692741482" fill="#c9b995"/>
<circle cx="14.99155669233799" cy="1829.1121475139491" r="0.3069851420060959" fill="#c9b995"/>
<circle cx="18.10193341711038" cy="881.8953911570258" r="0.5479864991416806" fill="#c9b995"/>
<circle cx="9.886355153351186" cy="1206.5177903847123" r="0.40120865527494126" fill="#c9b995"/>
<circle cx="1391.69688275197" cy="1450.9818034561574" r="0.48522714554527624" fill="#c9b995"/>
<circle cx="1391.6707673357002" cy="1730.0479874461328" r="0.4419777053082965" fill="#c9b995"/>
<circle cx="1382.1301829525637" cy="1166.3614983832842" r="0.5074493034068248" fill="#c9b995"/>
<circle cx="12.124680273477207" cy="1718.3815079376889" r="0.3673030859368039" fill="#c9b995"/>
<circle cx="15.986706829794414" cy="243.7645830770722" r="0.9178477769699571" fill="#c9b995"/>
<circle cx="16.098047152346414" cy="1588.2082221645444" r="0.3619062093973965" fill="#c9b995"/>
<circle cx="11.722907297400763" cy="674.7497261555343" r="0.6630334126279154" fill="#c9b995"/>
<circle cx="1378.695959354327" cy="1559.37392875076" r="0.5803177779326257" fill="#c9b995"/>
<circle cx="15.621127937109298" cy="651.7600916299858" r="0.7253180953572544" fill="#c9b995"/>
<circle cx="17.892442257329222" cy="311.3373802381261" r="0.32100307515692633" fill="#c9b995"/>
<circle cx="1386.0370682599125" cy="1789.5679533962305" r="0.442380789060856" fill="#c9b995"/>
<circle cx="20.921703034741512" cy="844.8929301393376" r="0.747683991815699" fill="#c9b995"/>
<circle cx="18.27904584118329" cy="127.99002079458582" r="0.483876413448336" fill="#c9b995"/>
<circle cx="1380.9862000258618" cy="1222.427601957057" r="0.859550061090979" fill="#c9b995"/>
<circle cx="1379.0085901962102" cy="1562.03389648537" r="0.6409323207874472" fill="#c9b995"/>
<circle cx="21.414174004196568" cy="1623.8596066616658" r="0.9054429482760957" fill="#c9b995"/>
<circle cx="1380.882098146825" cy="84.89985136312589" r="0.640311321498797" fill="#c9b995"/>
<circle cx="19.358799628069463" cy="397.20700097485155" r="0.45936620170580306" fill="#c9b995"/>
<circle cx="13.78728347316785" cy="401.5078706623757" r="0.3875810603622586" fill="#c9b995"/>
<circle cx="1378.1970471716827" cy="678.0429830177053" r="0.5160289418742062" fill="#c9b995"/>
<circle cx="1384.4395913485318" cy="485.5283174827224" r="0.36705960720311753" fill="#c9b995"/>
<circle cx="18.850420762057773" cy="875.1577946991168" r="0.8192114622490279" fill="#c9b995"/>
<circle cx="6.443615053396679" cy="297.4243204628476" r="0.6547986266484314" fill="#c9b995"/>
<circle cx="1394.2623656733838" cy="198.97139510796072" r="0.5651177968987903" fill="#c9b995"/>
<circle cx="1381.301705891977" cy="212.43700819289822" r="0.7818281613946845" fill="#c9b995"/>
<circle cx="1393.5566538141434" cy="955.1558897504302" r="0.5293460044543195" fill="#c9b995"/>
<circle cx="1392.8443768244683" cy="1148.2142023781391" r="0.930756528404441" fill="#c9b995"/>
<circle cx="14.827432367913612" cy="714.3088929238593" r="0.4692404876296911" fill="#c9b995"/>
<circle cx="1386.7780168296147" cy="1333.6734086120014" r="0.33260750811936274" fill="#c9b995"/>
<circle cx="10.720431679858587" cy="366.655570555543" r="0.45905874776044797" fill="#c9b995"/>
<circle cx="1390.156538605786" cy="1815.206029625807" r="0.8745419015171942" fill="#c9b995"/>
<circle cx="1379.8517415389322" cy="1263.286601170105" r="0.6310021164129422" fill="#c9b995"/>
<circle cx="18.50240659215949" cy="664.6621109457886" r="0.35000427056920547" fill="#c9b995"/>
<circle cx="1384.742681661414" cy="1128.9428651111868" r="0.3669973952581914" fill="#c9b995"/>
<circle cx="1382.3892389208286" cy="837.460753886531" r="0.5445167720906559" fill="#c9b995"/>
<circle cx="18.570829858897092" cy="1357.0101400631463" r="0.854774554284254" fill="#c9b995"/>
<circle cx="1388.5408136749788" cy="378.61454341291176" r="0.6454828027154781" fill="#c9b995"/>
<circle cx="1380.297649033617" cy="1346.1617978710542" r="1.064251439171603" fill="#c9b995"/>
<circle cx="1379.354125996009" cy="264.8897130691028" r="0.7821923959951651" fill="#c9b995"/>
<circle cx="1382.5171213298809" cy="586.4806605725227" r="0.6991577389295249" fill="#c9b995"/>
<circle cx="18.609191576820617" cy="1377.4521798084033" r="0.7937759123811997" fill="#c9b995"/>
<circle cx="1380.4893647170848" cy="221.60008807238057" r="1.0060702091605307" fill="#c9b995"/>
<circle cx="21.62495674665477" cy="24.228322840577405" r="0.7674685834838622" fill="#c9b995"/>
<circle cx="20.994156818607816" cy="31.943240090765173" r="0.9985579312205" fill="#c9b995"/>
<circle cx="17.9401924597513" cy="1035.5062001865967" r="1.059842656610271" fill="#c9b995"/>
<circle cx="1378.8704898837013" cy="248.56266974162742" r="0.6063955390918309" fill="#c9b995"/>
<circle cx="11.73683055566808" cy="1506.9974897670338" r="0.6971038811359913" fill="#c9b995"/>
<circle cx="1383.6389204410007" cy="1637.7719987469613" r="0.6562779521331665" fill="#c9b995"/>
<circle cx="1386.4302911083896" cy="1040.9379617864552" r="0.7695231841704397" fill="#c9b995"/>
<circle cx="18.18599386205674" cy="1557.7199184268254" r="0.7025638918785451" fill="#c9b995"/>
<circle cx="19.726566356578243" cy="1481.6978244145862" r="0.5040251797372997" fill="#c9b995"/>
<circle cx="1382.4823312783717" cy="32.67479166148783" r="1.062375386610349" fill="#c9b995"/>
<circle cx="1384.374290407534" cy="1187.108878784757" r="0.7646673488654945" fill="#c9b995"/>
<circle cx="1387.1970312664264" cy="1840.1133952195298" r="1.076032339600905" fill="#c9b995"/>
<circle cx="1382.4919034914874" cy="1214.468559397863" r="0.40655137277159836" fill="#c9b995"/>
<circle cx="21.230666048544933" cy="781.5215406743232" r="0.4888655026415728" fill="#c9b995"/>
<circle cx="1385.493859298581" cy="1545.536781066856" r="0.9041287242897351" fill="#c9b995"/>
<circle cx="11.233660239465696" cy="735.93588134829" r="0.8915583682671693" fill="#c9b995"/>
<circle cx="6.711468226007402" cy="1231.1842184129127" r="0.5480162241040929" fill="#c9b995"/>
<circle cx="1392.9853433666476" cy="895.6838375156722" r="0.6232603138334586" fill="#c9b995"/>
<circle cx="16.202343460415413" cy="1165.9165562653648" r="0.6013585072103065" fill="#c9b995"/>
<circle cx="12.795390950107393" cy="657.419140362298" r="0.3199676645700184" fill="#c9b995"/>
<circle cx="1387.8668862197958" cy="215.57889779611307" r="0.3233618522658691" fill="#c9b995"/>
<circle cx="1388.593081298753" cy="1824.8326060407155" r="0.7906155515494708" fill="#c9b995"/>
<circle cx="11.600925648860818" cy="135.24801713095843" r="0.726742565240408" fill="#c9b995"/>
<circle cx="8.747055981992686" cy="1348.6820703728063" r="0.8165760359769962" fill="#c9b995"/>
<circle cx="1394.1049298518853" cy="1546.2137839141792" r="0.5187100186889484" fill="#c9b995"/>
<circle cx="12.116146640263015" cy="1547.0390224755192" r="1.043778970875411" fill="#c9b995"/>
<circle cx="5.570460499880391" cy="1572.0553029612959" r="0.9792098209647102" fill="#c9b995"/>
<circle cx="21.147678935987063" cy="1439.0897308211333" r="0.9083819005027767" fill="#c9b995"/>
<circle cx="1389.3228215050685" cy="623.0347358273892" r="0.7388692354533581" fill="#c9b995"/>
<circle cx="20.58745705506525" cy="1150.5671228841907" r="0.8944208026073717" fill="#c9b995"/>
<circle cx="1383.829346056499" cy="385.9582026160192" r="0.7079672630929404" fill="#c9b995"/>
<circle cx="1391.4364412276796" cy="1334.8275969049355" r="0.6500528299492787" fill="#c9b995"/>
<circle cx="1392.3803556978542" cy="431.72661030054496" r="1.089320331705553" fill="#c9b995"/>
<circle cx="1386.4153923045828" cy="1596.8310356484747" r="0.3216458750321754" fill="#c9b995"/>
<circle cx="17.461792477508105" cy="1826.035363871455" r="1.059575574069494" fill="#c9b995"/>
<circle cx="1391.671967542125" cy="832.9950003422631" r="0.35615639488988454" fill="#c9b995"/>
<circle cx="1382.467152042746" cy="1326.0782217667936" r="0.7760506543063654" fill="#c9b995"/>
<circle cx="1388.4069975537175" cy="1342.8125926319733" r="0.42888778534193395" fill="#c9b995"/>
<circle cx="1378.248749718594" cy="946.9155271232075" r="0.404785246179062" fill="#c9b995"/>
<circle cx="19.1245265210934" cy="475.10540170732986" r="0.31777414314278524" fill="#c9b995"/>
<circle cx="9.244332956197763" cy="1682.4467574459204" r="0.843411667786893" fill="#c9b995"/>
<circle cx="16.206979211140634" cy="670.9206286736355" r="0.8884157027532618" fill="#c9b995"/>
<circle cx="1390.3992159280551" cy="1119.700074053895" r="0.49732471338367423" fill="#c9b995"/>
<circle cx="1382.5513761604204" cy="1927.201522331113" r="0.5191215400389869" fill="#c9b995"/>
<circle cx="1385.3507881981327" cy="130.4474360046217" r="0.5617003314302061" fill="#c9b995"/>
<circle cx="11.676138572888565" cy="521.7400994047711" r="0.8926436059131337" fill="#c9b995"/>
<circle cx="1392.31991207858" cy="577.4464003316303" r="0.6105900459023134" fill="#c9b995"/>
<circle cx="17.461679675675548" cy="1269.9284006296189" r="1.0366484074460571" fill="#c9b995"/>
<circle cx="1387.1788238494944" cy="1217.619908974031" r="0.7094984945055012" fill="#c9b995"/>
<circle cx="9.648084452971123" cy="1163.8487062068752" r="0.631026041826898" fill="#c9b995"/>
<circle cx="1386.960310632015" cy="1859.293575997477" r="0.6799187916295432" fill="#c9b995"/>
<circle cx="8.969112684130259" cy="1901.884096239487" r="0.781183654200243" fill="#c9b995"/>
<circle cx="21.251254126128913" cy="1594.5589834966331" r="0.5340780721891181" fill="#c9b995"/>
<circle cx="17.31051905256246" cy="915.3685501783215" r="0.725576841339578" fill="#c9b995"/>
<circle cx="15.029994146236534" cy="1024.5799964189773" r="0.6061356221675118" fill="#c9b995"/>
<circle cx="1386.1303468718204" cy="1112.1843787665357" r="0.851830435546234" fill="#c9b995"/>
<circle cx="1392.8339907903296" cy="1865.6373213221987" r="1.0345920198663205" fill="#c9b995"/>
<circle cx="1392.0830824879822" cy="1107.9388250850302" r="0.6308404306273788" fill="#c9b995"/>
<circle cx="10.791064467259858" cy="1704.2375846386087" r="0.4178907404224943" fill="#c9b995"/>
<circle cx="1393.7965658731216" cy="409.3837187454341" r="0.6985999845859121" fill="#c9b995"/>
<circle cx="21.979163759461215" cy="1616.7906409008287" r="0.5537220377768552" fill="#c9b995"/>
<circle cx="1389.3832557909477" cy="782.8201890777408" r="0.9290524389110355" fill="#c9b995"/>
<circle cx="13.754591962860703" cy="1272.7469062914884" r="0.8156808029084937" fill="#c9b995"/>
<circle cx="14.847788952241341" cy="725.4224863612089" r="0.8745236083157466" fill="#c9b995"/>
<circle cx="14.540137180071024" cy="1616.6890897725661" r="0.6811499168698987" fill="#c9b995"/>
<circle cx="19.42520500812033" cy="1486.9000802013445" r="0.9576402348967592" fill="#c9b995"/>
<circle cx="1387.7653972821677" cy="182.84151563825952" r="0.4221925252536424" fill="#c9b995"/>
<circle cx="1380.0251378758019" cy="102.445561133523" r="1.092638679559466" fill="#c9b995"/>
<circle cx="18.709133670853205" cy="1928.8700516164506" r="0.6373192504611818" fill="#c9b995"/>
<circle cx="1392.6769335021836" cy="977.475172996472" r="0.6665551324793478" fill="#c9b995"/>
<circle cx="21.5423376482421" cy="1020.7280300603055" r="0.46763503936717943" fill="#c9b995"/>
<circle cx="20.54281863480787" cy="1176.3904964304602" r="0.8486344299591395" fill="#c9b995"/>
<circle cx="19.49221272337558" cy="598.5747659797207" r="0.7139896963302865" fill="#c9b995"/>
<circle cx="1392.8312234497475" cy="195.92406202893238" r="0.5657864136630893" fill="#c9b995"/>
<circle cx="1393.161680129335" cy="682.2362571741083" r="0.5531193596494197" fill="#c9b995"/>
<circle cx="1381.9119365045576" cy="930.7454332898701" r="0.4562147050179933" fill="#c9b995"/>
<circle cx="1381.748761524347" cy="711.8011723105218" r="0.9000070856039635" fill="#c9b995"/>
<circle cx="18.395446566130154" cy="1673.0255865459606" r="1.0232491380152469" fill="#c9b995"/>
<circle cx="1384.924350778326" cy="1188.3535733469923" r="0.3306178363201379" fill="#c9b995"/>
<circle cx="1389.2007518830642" cy="1528.6022602484973" r="1.0143095474840642" fill="#c9b995"/>
<circle cx="7.252878843930782" cy="537.7085275037956" r="0.3153809066759913" fill="#c9b995"/>
<circle cx="1384.8709257340913" cy="1794.778268182613" r="0.39011428435924617" fill="#c9b995"/>
<circle cx="1383.0519259353891" cy="683.3571286208006" r="0.8022487855906468" fill="#c9b995"/>
<circle cx="1394.4016331575642" cy="1872.0719973192645" r="0.6613647037005643" fill="#c9b995"/>
<circle cx="1392.6554859601313" cy="1533.9581683924398" r="0.3734688123719908" fill="#c9b995"/>
<circle cx="6.14201142750143" cy="716.6798177967571" r="0.40250849867697347" fill="#c9b995"/>
<circle cx="16.907718429150627" cy="1674.5545234930462" r="1.063046374574333" fill="#c9b995"/>
<circle cx="19.26910930771551" cy="1587.6371232571348" r="0.5730083186099577" fill="#c9b995"/>
<circle cx="9.922855002945763" cy="1845.3705735203957" r="0.3849080864610349" fill="#c9b995"/>
<polyline points="3,1873.9619270264022 9.824705746741365,1873.5965471983038" fill="none" stroke="#c5b18a" stroke-width="1" stroke-linejoin="round"/>
<polyline points="3,182.9435125469656 13.065064687936948,181.54815572783946" fill="none" stroke="#c5b18a" stroke-width="1" stroke-linejoin="round"/>
<polyline points="3,1730.3896003326965 11.112360862658097,1728.8649713132277" fill="none" stroke="#c5b18a" stroke-width="1" stroke-linejoin="round"/>
<polyline points="3,1807.4876971098752 12.895591475224649,1809.459482398662" fill="none" stroke="#c5b18a" stroke-width="1" stroke-linejoin="round"/>
<polyline points="3,910.3439346381431 9.88378021373925,911.857389995393" fill="none" stroke="#c5b18a" stroke-width="1" stroke-linejoin="round"/>
<polyline points="3,838.0114281379522 9.186665000206883,839.8433350591846" fill="none" stroke="#c5b18a" stroke-width="1" stroke-linejoin="round"/>
<polyline points="3,710.1900091545413 11.26873400433513,709.5649094205559" fill="none" stroke="#c5b18a" stroke-width="1" stroke-linejoin="round"/>
<polyline points="3,864.1050123322345 15.444507483046523,862.4985540213022" fill="none" stroke="#c5b18a" stroke-width="1" stroke-linejoin="round"/>
</svg>